# Tiled2Unity generated file. Do not modify by hand.
# Wavefront file for 'fase1_mesh_0004.obj'

# Vertices (Count = 104)
v -132 -12 0
v -144 -12 0
v -144 0 0
v -132 0 0
v -144 -12 0
v -156 -12 0
v -156 0 0
v -144 0 0
v -156 -12 0
v -168 -12 0
v -168 0 0
v -156 0 0
v -168 -12 0
v -180 -12 0
v -180 0 0
v -168 0 0
v -180 -12 0
v -192 -12 0
v -192 0 0
v -180 0 0
v -192 -12 0
v -204 -12 0
v -204 0 0
v -192 0 0
v -204 -12 0
v -216 -12 0
v -216 0 0
v -204 0 0
v -216 -12 0
v -228 -12 0
v -228 0 0
v -216 0 0
v -228 -12 0
v -240 -12 0
v -240 0 0
v -228 0 0
v -240 -12 0
v -252 -12 0
v -252 0 0
v -240 0 0
v -252 -12 0
v -264 -12 0
v -264 0 0
v -252 0 0
v -264 -12 0
v -276 -12 0
v -276 0 0
v -264 0 0
v -60 -48 0
v -72 -48 0
v -72 -36 0
v -60 -36 0
v -72 -48 0
v -84 -48 0
v -84 -36 0
v -72 -36 0
v -84 -48 0
v -96 -48 0
v -96 -36 0
v -84 -36 0
v -96 -48 0
v -108 -48 0
v -108 -36 0
v -96 -36 0
v -108 -48 0
v -120 -48 0
v -120 -36 0
v -108 -36 0
v -288 -96 0
v -300 -96 0
v -300 -84 0
v -288 -84 0
v -300 -96 0
v -312 -96 0
v -312 -84 0
v -300 -84 0
v -312 -96 0
v -324 -96 0
v -324 -84 0
v -312 -84 0
v -324 -96 0
v -336 -96 0
v -336 -84 0
v -324 -84 0
v -336 -96 0
v -348 -96 0
v -348 -84 0
v -336 -84 0
v -348 -96 0
v -360 -96 0
v -360 -84 0
v -348 -84 0
v -360 -96 0
v -372 -96 0
v -372 -84 0
v -360 -84 0
v -372 -96 0
v -384 -96 0
v -384 -84 0
v -372 -84 0
v -384 -96 0
v -396 -96 0
v -396 -84 0
v -384 -84 0

# Texture cooridinates (Count = 4)
vt 0 0
vt 1 0
vt 1 1
vt 0 1

# Normal
vn 0 0 -1

# Mesh description
g fase1_mesh_0004

# Faces
f 1/1/1 2/2/1 3/3/1 4/4/1
f 5/1/1 6/2/1 7/3/1 8/4/1
f 9/1/1 10/2/1 11/3/1 12/4/1
f 13/1/1 14/2/1 15/3/1 16/4/1
f 17/1/1 18/2/1 19/3/1 20/4/1
f 21/1/1 22/2/1 23/3/1 24/4/1
f 25/1/1 26/2/1 27/3/1 28/4/1
f 29/1/1 30/2/1 31/3/1 32/4/1
f 33/1/1 34/2/1 35/3/1 36/4/1
f 37/1/1 38/2/1 39/3/1 40/4/1
f 41/1/1 42/2/1 43/3/1 44/4/1
f 45/1/1 46/2/1 47/3/1 48/4/1
f 49/1/1 50/2/1 51/3/1 52/4/1
f 53/1/1 54/2/1 55/3/1 56/4/1
f 57/1/1 58/2/1 59/3/1 60/4/1
f 61/1/1 62/2/1 63/3/1 64/4/1
f 65/1/1 66/2/1 67/3/1 68/4/1
f 69/1/1 70/2/1 71/3/1 72/4/1
f 73/1/1 74/2/1 75/3/1 76/4/1
f 77/1/1 78/2/1 79/3/1 80/4/1
f 81/1/1 82/2/1 83/3/1 84/4/1
f 85/1/1 86/2/1 87/3/1 88/4/1
f 89/1/1 90/2/1 91/3/1 92/4/1
f 93/1/1 94/2/1 95/3/1 96/4/1
f 97/1/1 98/2/1 99/3/1 100/4/1
f 101/1/1 102/2/1 103/3/1 104/4/1

