# Tiled2Unity generated file. Do not modify by hand.
# Wavefront file for 'fase1_mesh_0011.obj'

# Vertices (Count = 88)
v -24 -108 0
v -36 -108 0
v -36 -96 0
v -24 -96 0
v -36 -108 0
v -48 -108 0
v -48 -96 0
v -36 -96 0
v -48 -108 0
v -60 -108 0
v -60 -96 0
v -48 -96 0
v -60 -108 0
v -72 -108 0
v -72 -96 0
v -60 -96 0
v -72 -108 0
v -84 -108 0
v -84 -96 0
v -72 -96 0
v -84 -108 0
v -96 -108 0
v -96 -96 0
v -84 -96 0
v -96 -108 0
v -108 -108 0
v -108 -96 0
v -96 -96 0
v -312 -120 0
v -324 -120 0
v -324 -108 0
v -312 -108 0
v -324 -120 0
v -336 -120 0
v -336 -108 0
v -324 -108 0
v -336 -120 0
v -348 -120 0
v -348 -108 0
v -336 -108 0
v -348 -120 0
v -360 -120 0
v -360 -108 0
v -348 -108 0
v -360 -120 0
v -372 -120 0
v -372 -108 0
v -360 -108 0
v -372 -120 0
v -384 -120 0
v -384 -108 0
v -372 -108 0
v -384 -120 0
v -396 -120 0
v -396 -108 0
v -384 -108 0
v -120 -144 0
v -132 -144 0
v -132 -132 0
v -120 -132 0
v -132 -144 0
v -144 -144 0
v -144 -132 0
v -132 -132 0
v -228 -168 0
v -240 -168 0
v -240 -156 0
v -228 -156 0
v -240 -168 0
v -252 -168 0
v -252 -156 0
v -240 -156 0
v -252 -168 0
v -264 -168 0
v -264 -156 0
v -252 -156 0
v -264 -168 0
v -276 -168 0
v -276 -156 0
v -264 -156 0
v -276 -168 0
v -288 -168 0
v -288 -156 0
v -276 -156 0
v -288 -168 0
v -300 -168 0
v -300 -156 0
v -288 -156 0

# Texture cooridinates (Count = 4)
vt 0 0
vt 1 0
vt 1 1
vt 0 1

# Normal
vn 0 0 -1

# Mesh description
g fase1_mesh_0011

# Faces
f 1/1/1 2/2/1 3/3/1 4/4/1
f 5/1/1 6/2/1 7/3/1 8/4/1
f 9/1/1 10/2/1 11/3/1 12/4/1
f 13/1/1 14/2/1 15/3/1 16/4/1
f 17/1/1 18/2/1 19/3/1 20/4/1
f 21/1/1 22/2/1 23/3/1 24/4/1
f 25/1/1 26/2/1 27/3/1 28/4/1
f 29/1/1 30/2/1 31/3/1 32/4/1
f 33/1/1 34/2/1 35/3/1 36/4/1
f 37/1/1 38/2/1 39/3/1 40/4/1
f 41/1/1 42/2/1 43/3/1 44/4/1
f 45/1/1 46/2/1 47/3/1 48/4/1
f 49/1/1 50/2/1 51/3/1 52/4/1
f 53/1/1 54/2/1 55/3/1 56/4/1
f 57/1/1 58/2/1 59/3/1 60/4/1
f 61/1/1 62/2/1 63/3/1 64/4/1
f 65/1/1 66/2/1 67/3/1 68/4/1
f 69/1/1 70/2/1 71/3/1 72/4/1
f 73/1/1 74/2/1 75/3/1 76/4/1
f 77/1/1 78/2/1 79/3/1 80/4/1
f 81/1/1 82/2/1 83/3/1 84/4/1
f 85/1/1 86/2/1 87/3/1 88/4/1

