# Tiled2Unity generated file. Do not modify by hand.
# Wavefront file for 'fase1_mesh_0006.obj'

# Vertices (Count = 40)
v -228 -24 0
v -240 -24 0
v -240 -12 0
v -228 -12 0
v -228 -36 0
v -240 -36 0
v -240 -24 0
v -228 -24 0
v -228 -48 0
v -240 -48 0
v -240 -36 0
v -228 -36 0
v -228 -60 0
v -240 -60 0
v -240 -48 0
v -228 -48 0
v -228 -72 0
v -240 -72 0
v -240 -60 0
v -228 -60 0
v -264 -84 0
v -276 -84 0
v -276 -72 0
v -264 -72 0
v -264 -120 0
v -276 -120 0
v -276 -108 0
v -264 -108 0
v -276 -120 0
v -288 -120 0
v -288 -108 0
v -276 -108 0
v -288 -120 0
v -300 -120 0
v -300 -108 0
v -288 -108 0
v -240 -180 0
v -252 -180 0
v -252 -168 0
v -240 -168 0

# Texture cooridinates (Count = 10)
vt 0.875 0.5
vt 1 0.5
vt 1 0.6666666
vt 0.875 0.6666666
vt 0.25 0.1666667
vt 0.375 0.1666667
vt 0.375 0.3333333
vt 0.25 0.3333333
vt 0.125 0.1666667
vt 0.125 0.3333333

# Normal
vn 0 0 -1

# Mesh description
g fase1_mesh_0006

# Faces
f 1/1/1 2/2/1 3/3/1 4/4/1
f 5/1/1 6/2/1 7/3/1 8/4/1
f 9/1/1 10/2/1 11/3/1 12/4/1
f 13/1/1 14/2/1 15/3/1 16/4/1
f 17/1/1 18/2/1 19/3/1 20/4/1
f 21/5/1 22/6/1 23/7/1 24/8/1
f 25/5/1 26/6/1 27/7/1 28/8/1
f 29/5/1 30/6/1 31/7/1 32/8/1
f 33/5/1 34/6/1 35/7/1 36/8/1
f 37/9/1 38/5/1 39/8/1 40/10/1

