# Tiled2Unity generated file. Do not modify by hand.
# Wavefront file for 'fase1_mesh_0017.obj'

# Vertices (Count = 20)
v -168 -180 0
v -180 -180 0
v -180 -168 0
v -168 -168 0
v -180 -180 0
v -192 -180 0
v -192 -168 0
v -180 -168 0
v -192 -180 0
v -204 -180 0
v -204 -168 0
v -192 -168 0
v -204 -180 0
v -216 -180 0
v -216 -168 0
v -204 -168 0
v -216 -180 0
v -228 -180 0
v -228 -168 0
v -216 -168 0

# Texture cooridinates (Count = 4)
vt 0 0
vt 1 0
vt 1 1
vt 0 1

# Normal
vn 0 0 -1

# Mesh description
g fase1_mesh_0017

# Faces
f 1/1/1 2/2/1 3/3/1 4/4/1
f 5/1/1 6/2/1 7/3/1 8/4/1
f 9/1/1 10/2/1 11/3/1 12/4/1
f 13/1/1 14/2/1 15/3/1 16/4/1
f 17/1/1 18/2/1 19/3/1 20/4/1

