# Tiled2Unity generated file. Do not modify by hand.
# Wavefront file for 'fase2_mesh_0020.obj'

# Vertices (Count = 68)
v -48 -48 0
v -60 -48 0
v -60 -36 0
v -48 -36 0
v -84 -48 0
v -96 -48 0
v -96 -36 0
v -84 -36 0
v -120 -48 0
v -132 -48 0
v -132 -36 0
v -120 -36 0
v -156 -48 0
v -168 -48 0
v -168 -36 0
v -156 -36 0
v -192 -48 0
v -204 -48 0
v -204 -36 0
v -192 -36 0
v -228 -48 0
v -240 -48 0
v -240 -36 0
v -228 -36 0
v -264 -48 0
v -276 -48 0
v -276 -36 0
v -264 -36 0
v -300 -48 0
v -312 -48 0
v -312 -36 0
v -300 -36 0
v -336 -48 0
v -348 -48 0
v -348 -36 0
v -336 -36 0
v -36 -312 0
v -48 -312 0
v -48 -300 0
v -36 -300 0
v -60 -312 0
v -72 -312 0
v -72 -300 0
v -60 -300 0
v -504 -360 0
v -516 -360 0
v -516 -348 0
v -504 -348 0
v -540 -360 0
v -552 -360 0
v -552 -348 0
v -540 -348 0
v -492 -564 0
v -504 -564 0
v -504 -552 0
v -492 -552 0
v -276 -576 0
v -288 -576 0
v -288 -564 0
v -276 -564 0
v -312 -576 0
v -324 -576 0
v -324 -564 0
v -312 -564 0
v -348 -576 0
v -360 -576 0
v -360 -564 0
v -348 -564 0

# Texture cooridinates (Count = 4)
vt 0 0
vt 1 0
vt 1 1
vt 0 1

# Normal
vn 0 0 -1

# Mesh description
g fase2_mesh_0020

# Faces
f 1/1/1 2/2/1 3/3/1 4/4/1
f 5/1/1 6/2/1 7/3/1 8/4/1
f 9/1/1 10/2/1 11/3/1 12/4/1
f 13/1/1 14/2/1 15/3/1 16/4/1
f 17/1/1 18/2/1 19/3/1 20/4/1
f 21/1/1 22/2/1 23/3/1 24/4/1
f 25/1/1 26/2/1 27/3/1 28/4/1
f 29/1/1 30/2/1 31/3/1 32/4/1
f 33/1/1 34/2/1 35/3/1 36/4/1
f 37/1/1 38/2/1 39/3/1 40/4/1
f 41/1/1 42/2/1 43/3/1 44/4/1
f 45/1/1 46/2/1 47/3/1 48/4/1
f 49/1/1 50/2/1 51/3/1 52/4/1
f 53/1/1 54/2/1 55/3/1 56/4/1
f 57/1/1 58/2/1 59/3/1 60/4/1
f 61/1/1 62/2/1 63/3/1 64/4/1
f 65/1/1 66/2/1 67/3/1 68/4/1

