# Tiled2Unity generated file. Do not modify by hand.
# Wavefront file for 'fase2_mesh_0008.obj'

# Vertices (Count = 64)
v 0 -72 0
v -12 -72 0
v -12 -60 0
v 0 -60 0
v -384 -132 0
v -396 -132 0
v -396 -120 0
v -384 -120 0
v -60 -156 0
v -72 -156 0
v -72 -144 0
v -60 -144 0
v -216 -204 0
v -228 -204 0
v -228 -192 0
v -216 -192 0
v -432 -204 0
v -444 -204 0
v -444 -192 0
v -432 -192 0
v 0 -240 0
v -12 -240 0
v -12 -228 0
v 0 -228 0
v -156 -264 0
v -168 -264 0
v -168 -252 0
v -156 -252 0
v -312 -276 0
v -324 -276 0
v -324 -264 0
v -312 -264 0
v 0 -360 0
v -12 -360 0
v -12 -348 0
v 0 -348 0
v -132 -360 0
v -144 -360 0
v -144 -348 0
v -132 -348 0
v -168 -396 0
v -180 -396 0
v -180 -384 0
v -168 -384 0
v -456 -396 0
v -468 -396 0
v -468 -384 0
v -456 -384 0
v 0 -492 0
v -12 -492 0
v -12 -480 0
v 0 -480 0
v 0 -564 0
v -12 -564 0
v -12 -552 0
v 0 -552 0
v -108 -600 0
v -120 -600 0
v -120 -588 0
v -108 -588 0
v -444 -600 0
v -456 -600 0
v -456 -588 0
v -444 -588 0

# Texture cooridinates (Count = 4)
vt 0 0
vt 1 0
vt 1 1
vt 0 1

# Normal
vn 0 0 -1

# Mesh description
g fase2_mesh_0008

# Faces
f 1/1/1 2/2/1 3/3/1 4/4/1
f 5/1/1 6/2/1 7/3/1 8/4/1
f 9/1/1 10/2/1 11/3/1 12/4/1
f 13/1/1 14/2/1 15/3/1 16/4/1
f 17/1/1 18/2/1 19/3/1 20/4/1
f 21/1/1 22/2/1 23/3/1 24/4/1
f 25/1/1 26/2/1 27/3/1 28/4/1
f 29/1/1 30/2/1 31/3/1 32/4/1
f 33/1/1 34/2/1 35/3/1 36/4/1
f 37/1/1 38/2/1 39/3/1 40/4/1
f 41/1/1 42/2/1 43/3/1 44/4/1
f 45/1/1 46/2/1 47/3/1 48/4/1
f 49/1/1 50/2/1 51/3/1 52/4/1
f 53/1/1 54/2/1 55/3/1 56/4/1
f 57/1/1 58/2/1 59/3/1 60/4/1
f 61/1/1 62/2/1 63/3/1 64/4/1

