# Tiled2Unity generated file. Do not modify by hand.
# Wavefront file for 'fase2_mesh_0014.obj'

# Vertices (Count = 28)
v -36 -108 0
v -48 -108 0
v -48 -96 0
v -36 -96 0
v -420 -180 0
v -432 -180 0
v -432 -168 0
v -420 -168 0
v -372 -240 0
v -384 -240 0
v -384 -228 0
v -372 -228 0
v -108 -312 0
v -120 -312 0
v -120 -300 0
v -108 -300 0
v -312 -360 0
v -324 -360 0
v -324 -348 0
v -312 -348 0
v -432 -360 0
v -444 -360 0
v -444 -348 0
v -432 -348 0
v -360 -480 0
v -372 -480 0
v -372 -468 0
v -360 -468 0

# Texture cooridinates (Count = 4)
vt 0 0
vt 1 0
vt 1 1
vt 0 1

# Normal
vn 0 0 -1

# Mesh description
g fase2_mesh_0014

# Faces
f 1/1/1 2/2/1 3/3/1 4/4/1
f 5/1/1 6/2/1 7/3/1 8/4/1
f 9/1/1 10/2/1 11/3/1 12/4/1
f 13/1/1 14/2/1 15/3/1 16/4/1
f 17/1/1 18/2/1 19/3/1 20/4/1
f 21/1/1 22/2/1 23/3/1 24/4/1
f 25/1/1 26/2/1 27/3/1 28/4/1

