# Tiled2Unity generated file. Do not modify by hand.
# Wavefront file for 'fase2_mesh_0005.obj'

# Vertices (Count = 516)
v -420 -24 0
v -432 -24 0
v -432 -12 0
v -420 -12 0
v -444 -24 0
v -456 -24 0
v -456 -12 0
v -444 -12 0
v -468 -24 0
v -480 -24 0
v -480 -12 0
v -468 -12 0
v -492 -24 0
v -504 -24 0
v -504 -12 0
v -492 -12 0
v -528 -24 0
v -540 -24 0
v -540 -12 0
v -528 -12 0
v -552 -24 0
v -564 -24 0
v -564 -12 0
v -552 -12 0
v -420 -36 0
v -432 -36 0
v -432 -24 0
v -420 -24 0
v -444 -36 0
v -456 -36 0
v -456 -24 0
v -444 -24 0
v -468 -36 0
v -480 -36 0
v -480 -24 0
v -468 -24 0
v -492 -36 0
v -504 -36 0
v -504 -24 0
v -492 -24 0
v -528 -36 0
v -540 -36 0
v -540 -24 0
v -528 -24 0
v -552 -36 0
v -564 -36 0
v -564 -24 0
v -552 -24 0
v -420 -48 0
v -432 -48 0
v -432 -36 0
v -420 -36 0
v -444 -48 0
v -456 -48 0
v -456 -36 0
v -444 -36 0
v -468 -48 0
v -480 -48 0
v -480 -36 0
v -468 -36 0
v -492 -48 0
v -504 -48 0
v -504 -36 0
v -492 -36 0
v -528 -48 0
v -540 -48 0
v -540 -36 0
v -528 -36 0
v -552 -48 0
v -564 -48 0
v -564 -36 0
v -552 -36 0
v -420 -60 0
v -432 -60 0
v -432 -48 0
v -420 -48 0
v -468 -60 0
v -480 -60 0
v -480 -48 0
v -468 -48 0
v -492 -60 0
v -504 -60 0
v -504 -48 0
v -492 -48 0
v -528 -60 0
v -540 -60 0
v -540 -48 0
v -528 -48 0
v -552 -60 0
v -564 -60 0
v -564 -48 0
v -552 -48 0
v -420 -72 0
v -432 -72 0
v -432 -60 0
v -420 -60 0
v -528 -72 0
v -540 -72 0
v -540 -60 0
v -528 -60 0
v -552 -72 0
v -564 -72 0
v -564 -60 0
v -552 -60 0
v -420 -84 0
v -432 -84 0
v -432 -72 0
v -420 -72 0
v -552 -84 0
v -564 -84 0
v -564 -72 0
v -552 -72 0
v -336 -96 0
v -348 -96 0
v -348 -84 0
v -336 -84 0
v -552 -96 0
v -564 -96 0
v -564 -84 0
v -552 -84 0
v -336 -108 0
v -348 -108 0
v -348 -96 0
v -336 -96 0
v -336 -120 0
v -348 -120 0
v -348 -108 0
v -336 -108 0
v -336 -132 0
v -348 -132 0
v -348 -120 0
v -336 -120 0
v -336 -144 0
v -348 -144 0
v -348 -132 0
v -336 -132 0
v -396 -276 0
v -408 -276 0
v -408 -264 0
v -396 -264 0
v -432 -276 0
v -444 -276 0
v -444 -264 0
v -432 -264 0
v -468 -276 0
v -480 -276 0
v -480 -264 0
v -468 -264 0
v -540 -276 0
v -552 -276 0
v -552 -264 0
v -540 -264 0
v -564 -276 0
v -576 -276 0
v -576 -264 0
v -564 -264 0
v -396 -288 0
v -408 -288 0
v -408 -276 0
v -396 -276 0
v -432 -288 0
v -444 -288 0
v -444 -276 0
v -432 -276 0
v -468 -288 0
v -480 -288 0
v -480 -276 0
v -468 -276 0
v -540 -288 0
v -552 -288 0
v -552 -276 0
v -540 -276 0
v -564 -288 0
v -576 -288 0
v -576 -276 0
v -564 -276 0
v -216 -300 0
v -228 -300 0
v -228 -288 0
v -216 -288 0
v -252 -300 0
v -264 -300 0
v -264 -288 0
v -252 -288 0
v -396 -300 0
v -408 -300 0
v -408 -288 0
v -396 -288 0
v -432 -300 0
v -444 -300 0
v -444 -288 0
v -432 -288 0
v -468 -300 0
v -480 -300 0
v -480 -288 0
v -468 -288 0
v -540 -300 0
v -552 -300 0
v -552 -288 0
v -540 -288 0
v -564 -300 0
v -576 -300 0
v -576 -288 0
v -564 -288 0
v -216 -312 0
v -228 -312 0
v -228 -300 0
v -216 -300 0
v -252 -312 0
v -264 -312 0
v -264 -300 0
v -252 -300 0
v -288 -312 0
v -300 -312 0
v -300 -300 0
v -288 -300 0
v -432 -312 0
v -444 -312 0
v -444 -300 0
v -432 -300 0
v -468 -312 0
v -480 -312 0
v -480 -300 0
v -468 -300 0
v -540 -312 0
v -552 -312 0
v -552 -300 0
v -540 -300 0
v -564 -312 0
v -576 -312 0
v -576 -300 0
v -564 -300 0
v -216 -324 0
v -228 -324 0
v -228 -312 0
v -216 -312 0
v -252 -324 0
v -264 -324 0
v -264 -312 0
v -252 -312 0
v -288 -324 0
v -300 -324 0
v -300 -312 0
v -288 -312 0
v -216 -336 0
v -228 -336 0
v -228 -324 0
v -216 -324 0
v -252 -336 0
v -264 -336 0
v -264 -324 0
v -252 -324 0
v -288 -336 0
v -300 -336 0
v -300 -324 0
v -288 -324 0
v -216 -348 0
v -228 -348 0
v -228 -336 0
v -216 -336 0
v -252 -348 0
v -264 -348 0
v -264 -336 0
v -252 -336 0
v -288 -348 0
v -300 -348 0
v -300 -336 0
v -288 -336 0
v -288 -360 0
v -300 -360 0
v -300 -348 0
v -288 -348 0
v -36 -396 0
v -48 -396 0
v -48 -384 0
v -36 -384 0
v -36 -408 0
v -48 -408 0
v -48 -396 0
v -36 -396 0
v -36 -420 0
v -48 -420 0
v -48 -408 0
v -36 -408 0
v -36 -432 0
v -48 -432 0
v -48 -420 0
v -36 -420 0
v -36 -444 0
v -48 -444 0
v -48 -432 0
v -36 -432 0
v -132 -444 0
v -144 -444 0
v -144 -432 0
v -132 -432 0
v -168 -444 0
v -180 -444 0
v -180 -432 0
v -168 -432 0
v -240 -444 0
v -252 -444 0
v -252 -432 0
v -240 -432 0
v -276 -444 0
v -288 -444 0
v -288 -432 0
v -276 -432 0
v -324 -444 0
v -336 -444 0
v -336 -432 0
v -324 -432 0
v -516 -444 0
v -528 -444 0
v -528 -432 0
v -516 -432 0
v -552 -444 0
v -564 -444 0
v -564 -432 0
v -552 -432 0
v -36 -456 0
v -48 -456 0
v -48 -444 0
v -36 -444 0
v -132 -456 0
v -144 -456 0
v -144 -444 0
v -132 -444 0
v -168 -456 0
v -180 -456 0
v -180 -444 0
v -168 -444 0
v -240 -456 0
v -252 -456 0
v -252 -444 0
v -240 -444 0
v -276 -456 0
v -288 -456 0
v -288 -444 0
v -276 -444 0
v -324 -456 0
v -336 -456 0
v -336 -444 0
v -324 -444 0
v -516 -456 0
v -528 -456 0
v -528 -444 0
v -516 -444 0
v -552 -456 0
v -564 -456 0
v -564 -444 0
v -552 -444 0
v -36 -468 0
v -48 -468 0
v -48 -456 0
v -36 -456 0
v -132 -468 0
v -144 -468 0
v -144 -456 0
v -132 -456 0
v -168 -468 0
v -180 -468 0
v -180 -456 0
v -168 -456 0
v -240 -468 0
v -252 -468 0
v -252 -456 0
v -240 -456 0
v -276 -468 0
v -288 -468 0
v -288 -456 0
v -276 -456 0
v -324 -468 0
v -336 -468 0
v -336 -456 0
v -324 -456 0
v -516 -468 0
v -528 -468 0
v -528 -456 0
v -516 -456 0
v -552 -468 0
v -564 -468 0
v -564 -456 0
v -552 -456 0
v -132 -480 0
v -144 -480 0
v -144 -468 0
v -132 -468 0
v -168 -480 0
v -180 -480 0
v -180 -468 0
v -168 -468 0
v -240 -480 0
v -252 -480 0
v -252 -468 0
v -240 -468 0
v -276 -480 0
v -288 -480 0
v -288 -468 0
v -276 -468 0
v -324 -480 0
v -336 -480 0
v -336 -468 0
v -324 -468 0
v -516 -480 0
v -528 -480 0
v -528 -468 0
v -516 -468 0
v -552 -480 0
v -564 -480 0
v -564 -468 0
v -552 -468 0
v -132 -492 0
v -144 -492 0
v -144 -480 0
v -132 -480 0
v -168 -492 0
v -180 -492 0
v -180 -480 0
v -168 -480 0
v -240 -492 0
v -252 -492 0
v -252 -480 0
v -240 -480 0
v -516 -492 0
v -528 -492 0
v -528 -480 0
v -516 -480 0
v -132 -504 0
v -144 -504 0
v -144 -492 0
v -132 -492 0
v -168 -504 0
v -180 -504 0
v -180 -492 0
v -168 -492 0
v -240 -504 0
v -252 -504 0
v -252 -492 0
v -240 -492 0
v -516 -504 0
v -528 -504 0
v -528 -492 0
v -516 -492 0
v -132 -516 0
v -144 -516 0
v -144 -504 0
v -132 -504 0
v -168 -516 0
v -180 -516 0
v -180 -504 0
v -168 -504 0
v -240 -516 0
v -252 -516 0
v -252 -504 0
v -240 -504 0
v -516 -516 0
v -528 -516 0
v -528 -504 0
v -516 -504 0
v -132 -528 0
v -144 -528 0
v -144 -516 0
v -132 -516 0
v -168 -528 0
v -180 -528 0
v -180 -516 0
v -168 -516 0
v -240 -528 0
v -252 -528 0
v -252 -516 0
v -240 -516 0
v -516 -528 0
v -528 -528 0
v -528 -516 0
v -516 -516 0
v -132 -540 0
v -144 -540 0
v -144 -528 0
v -132 -528 0
v -168 -540 0
v -180 -540 0
v -180 -528 0
v -168 -528 0
v -240 -540 0
v -252 -540 0
v -252 -528 0
v -240 -528 0
v -516 -540 0
v -528 -540 0
v -528 -528 0
v -516 -528 0
v -132 -552 0
v -144 -552 0
v -144 -540 0
v -132 -540 0
v -168 -552 0
v -180 -552 0
v -180 -540 0
v -168 -540 0
v -240 -552 0
v -252 -552 0
v -252 -540 0
v -240 -540 0
v -516 -552 0
v -528 -552 0
v -528 -540 0
v -516 -540 0
v -240 -564 0
v -252 -564 0
v -252 -552 0
v -240 -552 0
v -516 -564 0
v -528 -564 0
v -528 -552 0
v -516 -552 0

# Texture cooridinates (Count = 4)
vt 0 0
vt 1 0
vt 1 1
vt 0 1

# Normal
vn 0 0 -1

# Mesh description
g fase2_mesh_0005

# Faces
f 1/1/1 2/2/1 3/3/1 4/4/1
f 5/1/1 6/2/1 7/3/1 8/4/1
f 9/1/1 10/2/1 11/3/1 12/4/1
f 13/1/1 14/2/1 15/3/1 16/4/1
f 17/1/1 18/2/1 19/3/1 20/4/1
f 21/1/1 22/2/1 23/3/1 24/4/1
f 25/1/1 26/2/1 27/3/1 28/4/1
f 29/1/1 30/2/1 31/3/1 32/4/1
f 33/1/1 34/2/1 35/3/1 36/4/1
f 37/1/1 38/2/1 39/3/1 40/4/1
f 41/1/1 42/2/1 43/3/1 44/4/1
f 45/1/1 46/2/1 47/3/1 48/4/1
f 49/1/1 50/2/1 51/3/1 52/4/1
f 53/1/1 54/2/1 55/3/1 56/4/1
f 57/1/1 58/2/1 59/3/1 60/4/1
f 61/1/1 62/2/1 63/3/1 64/4/1
f 65/1/1 66/2/1 67/3/1 68/4/1
f 69/1/1 70/2/1 71/3/1 72/4/1
f 73/1/1 74/2/1 75/3/1 76/4/1
f 77/1/1 78/2/1 79/3/1 80/4/1
f 81/1/1 82/2/1 83/3/1 84/4/1
f 85/1/1 86/2/1 87/3/1 88/4/1
f 89/1/1 90/2/1 91/3/1 92/4/1
f 93/1/1 94/2/1 95/3/1 96/4/1
f 97/1/1 98/2/1 99/3/1 100/4/1
f 101/1/1 102/2/1 103/3/1 104/4/1
f 105/1/1 106/2/1 107/3/1 108/4/1
f 109/1/1 110/2/1 111/3/1 112/4/1
f 113/1/1 114/2/1 115/3/1 116/4/1
f 117/1/1 118/2/1 119/3/1 120/4/1
f 121/1/1 122/2/1 123/3/1 124/4/1
f 125/1/1 126/2/1 127/3/1 128/4/1
f 129/1/1 130/2/1 131/3/1 132/4/1
f 133/1/1 134/2/1 135/3/1 136/4/1
f 137/1/1 138/2/1 139/3/1 140/4/1
f 141/1/1 142/2/1 143/3/1 144/4/1
f 145/1/1 146/2/1 147/3/1 148/4/1
f 149/1/1 150/2/1 151/3/1 152/4/1
f 153/1/1 154/2/1 155/3/1 156/4/1
f 157/1/1 158/2/1 159/3/1 160/4/1
f 161/1/1 162/2/1 163/3/1 164/4/1
f 165/1/1 166/2/1 167/3/1 168/4/1
f 169/1/1 170/2/1 171/3/1 172/4/1
f 173/1/1 174/2/1 175/3/1 176/4/1
f 177/1/1 178/2/1 179/3/1 180/4/1
f 181/1/1 182/2/1 183/3/1 184/4/1
f 185/1/1 186/2/1 187/3/1 188/4/1
f 189/1/1 190/2/1 191/3/1 192/4/1
f 193/1/1 194/2/1 195/3/1 196/4/1
f 197/1/1 198/2/1 199/3/1 200/4/1
f 201/1/1 202/2/1 203/3/1 204/4/1
f 205/1/1 206/2/1 207/3/1 208/4/1
f 209/1/1 210/2/1 211/3/1 212/4/1
f 213/1/1 214/2/1 215/3/1 216/4/1
f 217/1/1 218/2/1 219/3/1 220/4/1
f 221/1/1 222/2/1 223/3/1 224/4/1
f 225/1/1 226/2/1 227/3/1 228/4/1
f 229/1/1 230/2/1 231/3/1 232/4/1
f 233/1/1 234/2/1 235/3/1 236/4/1
f 237/1/1 238/2/1 239/3/1 240/4/1
f 241/1/1 242/2/1 243/3/1 244/4/1
f 245/1/1 246/2/1 247/3/1 248/4/1
f 249/1/1 250/2/1 251/3/1 252/4/1
f 253/1/1 254/2/1 255/3/1 256/4/1
f 257/1/1 258/2/1 259/3/1 260/4/1
f 261/1/1 262/2/1 263/3/1 264/4/1
f 265/1/1 266/2/1 267/3/1 268/4/1
f 269/1/1 270/2/1 271/3/1 272/4/1
f 273/1/1 274/2/1 275/3/1 276/4/1
f 277/1/1 278/2/1 279/3/1 280/4/1
f 281/1/1 282/2/1 283/3/1 284/4/1
f 285/1/1 286/2/1 287/3/1 288/4/1
f 289/1/1 290/2/1 291/3/1 292/4/1
f 293/1/1 294/2/1 295/3/1 296/4/1
f 297/1/1 298/2/1 299/3/1 300/4/1
f 301/1/1 302/2/1 303/3/1 304/4/1
f 305/1/1 306/2/1 307/3/1 308/4/1
f 309/1/1 310/2/1 311/3/1 312/4/1
f 313/1/1 314/2/1 315/3/1 316/4/1
f 317/1/1 318/2/1 319/3/1 320/4/1
f 321/1/1 322/2/1 323/3/1 324/4/1
f 325/1/1 326/2/1 327/3/1 328/4/1
f 329/1/1 330/2/1 331/3/1 332/4/1
f 333/1/1 334/2/1 335/3/1 336/4/1
f 337/1/1 338/2/1 339/3/1 340/4/1
f 341/1/1 342/2/1 343/3/1 344/4/1
f 345/1/1 346/2/1 347/3/1 348/4/1
f 349/1/1 350/2/1 351/3/1 352/4/1
f 353/1/1 354/2/1 355/3/1 356/4/1
f 357/1/1 358/2/1 359/3/1 360/4/1
f 361/1/1 362/2/1 363/3/1 364/4/1
f 365/1/1 366/2/1 367/3/1 368/4/1
f 369/1/1 370/2/1 371/3/1 372/4/1
f 373/1/1 374/2/1 375/3/1 376/4/1
f 377/1/1 378/2/1 379/3/1 380/4/1
f 381/1/1 382/2/1 383/3/1 384/4/1
f 385/1/1 386/2/1 387/3/1 388/4/1
f 389/1/1 390/2/1 391/3/1 392/4/1
f 393/1/1 394/2/1 395/3/1 396/4/1
f 397/1/1 398/2/1 399/3/1 400/4/1
f 401/1/1 402/2/1 403/3/1 404/4/1
f 405/1/1 406/2/1 407/3/1 408/4/1
f 409/1/1 410/2/1 411/3/1 412/4/1
f 413/1/1 414/2/1 415/3/1 416/4/1
f 417/1/1 418/2/1 419/3/1 420/4/1
f 421/1/1 422/2/1 423/3/1 424/4/1
f 425/1/1 426/2/1 427/3/1 428/4/1
f 429/1/1 430/2/1 431/3/1 432/4/1
f 433/1/1 434/2/1 435/3/1 436/4/1
f 437/1/1 438/2/1 439/3/1 440/4/1
f 441/1/1 442/2/1 443/3/1 444/4/1
f 445/1/1 446/2/1 447/3/1 448/4/1
f 449/1/1 450/2/1 451/3/1 452/4/1
f 453/1/1 454/2/1 455/3/1 456/4/1
f 457/1/1 458/2/1 459/3/1 460/4/1
f 461/1/1 462/2/1 463/3/1 464/4/1
f 465/1/1 466/2/1 467/3/1 468/4/1
f 469/1/1 470/2/1 471/3/1 472/4/1
f 473/1/1 474/2/1 475/3/1 476/4/1
f 477/1/1 478/2/1 479/3/1 480/4/1
f 481/1/1 482/2/1 483/3/1 484/4/1
f 485/1/1 486/2/1 487/3/1 488/4/1
f 489/1/1 490/2/1 491/3/1 492/4/1
f 493/1/1 494/2/1 495/3/1 496/4/1
f 497/1/1 498/2/1 499/3/1 500/4/1
f 501/1/1 502/2/1 503/3/1 504/4/1
f 505/1/1 506/2/1 507/3/1 508/4/1
f 509/1/1 510/2/1 511/3/1 512/4/1
f 513/1/1 514/2/1 515/3/1 516/4/1

