# Tiled2Unity generated file. Do not modify by hand.
# Wavefront file for 'fase2_mesh_0013.obj'

# Vertices (Count = 24)
v -492 -72 0
v -504 -72 0
v -504 -60 0
v -492 -60 0
v -468 -324 0
v -480 -324 0
v -480 -312 0
v -468 -312 0
v -564 -324 0
v -576 -324 0
v -576 -312 0
v -564 -312 0
v -252 -360 0
v -264 -360 0
v -264 -348 0
v -252 -348 0
v -324 -492 0
v -336 -492 0
v -336 -480 0
v -324 -480 0
v -168 -564 0
v -180 -564 0
v -180 -552 0
v -168 -552 0

# Texture cooridinates (Count = 4)
vt 0 0
vt 1 0
vt 1 1
vt 0 1

# Normal
vn 0 0 -1

# Mesh description
g fase2_mesh_0013

# Faces
f 1/1/1 2/2/1 3/3/1 4/4/1
f 5/1/1 6/2/1 7/3/1 8/4/1
f 9/1/1 10/2/1 11/3/1 12/4/1
f 13/1/1 14/2/1 15/3/1 16/4/1
f 17/1/1 18/2/1 19/3/1 20/4/1
f 21/1/1 22/2/1 23/3/1 24/4/1

